<svg id="Solid" xmlns="http://www.w3.org/2000/svg" viewBox="0 0 128 128"><title>romance, love, fruit, feeling, romantic</title><path d="M16.276,42.212c-1.186-1.993-5.6-4.15-8.954-1.275-2.21,1.9-2.441,6.183.347,9.19,3.345,3.609,8.819,5.5,14.44,6.975a.46.46,0,0,0,.573-.517c-1.092-6.153,2.511-7.982,3.794-11.446a6.283,6.283,0,0,0-.959-6.381,5.716,5.716,0,0,0-5.8-1.391A5.486,5.486,0,0,0,16.276,42.212Z"/><path d="M23.488,8.33c.8-3.068,5.768-7.588,11.266-5.1,3.626,1.643,5.568,7.184,3.057,12.2C34.8,21.448,28.336,26.02,21.521,30.108a.63.63,0,0,1-.95-.461c-.919-8.494-6.347-9.519-9.356-13.575a8.59,8.59,0,0,1-1.179-8.744,7.817,7.817,0,0,1,7.079-4.041C20.584,3.541,22.464,5.955,23.488,8.33Z"/><path d="M123.462,54.009c-2.031-1.347-3.379-3.821-4.94-6.685-2.472-4.537-5.548-10.182-12.844-14.05a1.047,1.047,0,0,1-.421-1.194c5.2-11.406,2.353-21.1-2.05-26.364a6.769,6.769,0,0,0-11.084,7.677c2.229,3.824,2.65,11.343,1.549,12.851a3.48,3.48,0,0,1-1.009-.4A51.166,51.166,0,0,0,73.609,19.9a26.219,26.219,0,0,1-7.335-1.718,4.243,4.243,0,0,0-1.8-.4,4.3,4.3,0,0,0-3.952,5.957,10.691,10.691,0,0,0,1.058,1.927C51.1,27.223,41.6,32.981,35.023,43.41c-11.363,18.026-4.232,35.339-5.9,50.859a52.732,52.732,0,0,0,.754,16,18.844,18.844,0,0,0,23.194,14.62,52.784,52.784,0,0,0,14.765-6.223c13.285-8.2,31.98-9.229,43.343-27.255,6.321-10.029,7.581-20.644,4.9-30.446a31.61,31.61,0,0,0,4.545.971,4.218,4.218,0,0,0,.582.041,4.164,4.164,0,0,0,3.969-3.035A4.358,4.358,0,0,0,123.462,54.009Zm-73.625-5.07c3.095,2.01.39,10.765-4.366,8.411C41.349,55.311,46.771,46.947,49.837,48.939ZM47.546,76.024c3.644.3,2.808,10.236-1.7,9.324C40.645,84.3,43.869,75.719,47.546,76.024Zm-.786,34.022c-4.8-2.184.837-9.251,4.272-8.064C54.434,103.158,50.923,111.939,46.76,110.046ZM73.768,65.911c3.47,1.069-.805,11.062-5.019,9.25C63.886,73.07,70.266,64.831,73.768,65.911Zm-2.591,35.8c-4.175-3.276,2.557-9.492,5.7-7.568C80,96.055,74.794,104.555,71.177,101.716ZM94.1,88c-4.175-3.276,2.557-9.492,5.706-7.567C102.925,82.342,97.717,90.841,94.1,88Zm27.115-29.02a1.2,1.2,0,0,1-.167-.012,26.761,26.761,0,0,1-6.1-1.534h0c-.487-.19-.947-.392-1.384-.6l0,0c-4.95-2.4-6.825-6.01-8.348-8.727l-.045-.08c-.094-.167-.188-.333-.28-.492s-.184-.315-.276-.467l-.085-.14q-.168-.27-.337-.518l-.072-.1c-.12-.171-.242-.337-.368-.489a1.271,1.271,0,0,0-.251-.227c-.027-.02-.056-.034-.084-.051a1.178,1.178,0,0,0-.2-.1c-.032-.011-.063-.023-.095-.032a1.3,1.3,0,0,0-.238-.039c-.021,0-.042-.006-.063-.006l-.017,0c-.023,0-.044.01-.067.011a1,1,0,0,0-.405.094,1.213,1.213,0,0,0-.218.119c-.037.026-.072.052-.107.082a1.126,1.126,0,0,0-.172.2.915.915,0,0,0-.073.1,1.227,1.227,0,0,0-.143.389c-.3,1.7-.707,3.486-1.169,5.294s-.975,3.637-1.48,5.415c-.379,1.333-.753,2.638-1.1,3.884-.572,2.077-1.059,3.991-1.342,5.605h0a1.6,1.6,0,0,1-.483.85,1.408,1.408,0,0,1-.119.1,1.525,1.525,0,0,1-.3.168c-.037.015-.07.036-.108.049a1.509,1.509,0,0,1-.451.077,1.43,1.43,0,0,1-.345-.037c-.028-.007-.055-.018-.083-.026a1.488,1.488,0,0,1-.265-.111c-.031-.017-.062-.034-.092-.053a1.487,1.487,0,0,1-.3-.253,18.96,18.96,0,0,1-3.629-6.021c-.221-.592-.41-1.187-.571-1.781s-.292-1.187-.4-1.777a24.562,24.562,0,0,1-.357-5.154c.026-.821.088-1.615.175-2.376.057-.507.126-1,.2-1.472.153-.946.337-1.821.527-2.6.095-.39.192-.757.286-1.1s.188-.656.276-.941.17-.543.245-.768a1.315,1.315,0,0,0,.064-.333,1,1,0,0,0,0-.11,1.365,1.365,0,0,0-.015-.214c-.008-.043-.024-.082-.036-.124a1.441,1.441,0,0,0-.059-.179,1.268,1.268,0,0,0-.067-.118,1.23,1.23,0,0,0-.094-.151,3.16,3.16,0,0,0-.218-.226,1.214,1.214,0,0,0-.117-.081,1.235,1.235,0,0,0-.148-.089,1.253,1.253,0,0,0-.137-.053,1.207,1.207,0,0,0-.168-.051,1.246,1.246,0,0,0-.151-.019c-.041,0-.079-.015-.12-.015s-.083,0-.125.006a8.454,8.454,0,0,0-1.194.2,12.945,12.945,0,0,0-2.451.885c-.415.194-.832.409-1.252.64C79.4,46.077,74.01,51.329,68.988,52.732h0a1.937,1.937,0,0,1-.47.067,1.55,1.55,0,0,1-.217-.009c-.035,0-.07,0-.1-.01a1.347,1.347,0,0,1-.306-.087l-.018-.01a1.3,1.3,0,0,1-.248-.146c-.027-.02-.051-.044-.076-.066a1.3,1.3,0,0,1-.148-.149,1.147,1.147,0,0,1-.07-.094,1.353,1.353,0,0,1-.105-.177c-.019-.037-.037-.073-.053-.112a1.817,1.817,0,0,1-.07-.223c-.01-.037-.022-.072-.029-.111a2.1,2.1,0,0,1-.037-.372v0c-.021-5.915,3.8-10.781,7.418-14.147.181-.168.362-.332.541-.493.719-.643,1.421-1.225,2.076-1.742,1.145-.905,2.144-1.612,2.821-2.1a.858.858,0,0,0,.354-.59.933.933,0,0,0,0-.224.876.876,0,0,0-.545-.7c-.654-.266-1.3-.5-1.944-.734-.157-.056-.312-.112-.468-.166q-.865-.3-1.71-.573c-4.212-1.36-7.967-2.3-10.358-4.476a7.6,7.6,0,0,1-1.939-2.707,1.3,1.3,0,0,1,1.188-1.792,1.261,1.261,0,0,1,.536.122c6.264,2.922,13.948.882,26.221,7.573a5.486,5.486,0,0,0,2.565.785c5.183,0,3.74-12.545.923-17.377a3.736,3.736,0,0,1,1.339-5.051h0a3.775,3.775,0,0,1,4.852.811c3.739,4.473,6.29,12.961,1.622,23.193a4.026,4.026,0,0,0,1.745,5.09c11.148,5.911,11.175,16.368,17.531,20.585A1.368,1.368,0,0,1,121.215,58.982Z"/></svg>