<svg id="Solid" xmlns="http://www.w3.org/2000/svg" viewBox="0 0 128 128"><title>hands, up, nightclub, party, dance, people, fun</title><path d="M117.967,125.8a2.994,2.994,0,0,1-2.958-2.5c-4.215-25.576-13.533-59.23-21.528-68.721-3.561-4.229-6.909-6.467-13.758-8.69-2.585-.838-12.426-1.687-14.411-2.818a3.573,3.573,0,0,1,.11-6.209c2.217-1.183,5-.963,7.474-.438,1.262.268,3.746.539,4.861-.475,1.409-1.283.554-4.62.111-6.207-.643-2.3-4.173-7.609-5.176-9.676-2.042-4.207-3.124-8.122-4.6-12.555-1.184-3.554,3.646-5.9,5.063-1.982A73.843,73.843,0,0,0,78.02,15.889c.9,1.407,2.579,4.632,4.281,5.161,2.072.643,4.634-1.727,7.021-1.433a7.92,7.92,0,0,1,3.66,1.541A2.244,2.244,0,0,0,94.8,21.5c4.52-1.038,5.465,4.343,5.988,6.843.913,4.365,3.867,10.788,5.817,14.76,2.508,5.108,12.275,17.592,19.018,33.73a4.031,4.031,0,0,1,.31,1.556V122.8a3,3,0,0,1-3,3Z"/><path d="M71.729,70.191c.109.332.528.227.565-.121a51.24,51.24,0,0,0-.013-8.914c-.107-1.19.334-2.26,1.084-2.385,1.963-.327,2.781,3.582,2.854,7.229.047,2.376,2.006,9.926,2.489,13.167a83.839,83.839,0,0,1,.686,14.271c-.117,8.869,1.252,21.528,1.264,30.5a2,2,0,0,1-2,2H64.114a2,2,0,0,1-1.949-2.431,121.5,121.5,0,0,0,2.424-23.549c.019-2.639-4.389-6.818-8.084-8.08-5.028-1.717-10.778-.445-11.567-.526a2.372,2.372,0,0,1-1.7-4.188A6.006,6.006,0,0,1,47.2,85.525c1.006-.02,8.124-.666,9.037-1.087a2.476,2.476,0,0,0,1.094-2.625c-.854-5.9-11.613-15.907-11.313-18.408.2-1.678,2.1-1.939,3.406-1.239A8.885,8.885,0,0,1,51.9,64.458c2.777,3.321,5.039,5.678,7.659,8.7a.308.308,0,0,0,.515-.327c-2.131-4.407-4.577-9.171-6.857-13.5a4.338,4.338,0,0,1-.6-2.729,1.942,1.942,0,0,1,.79-1.266,2.611,2.611,0,0,1,2.734-.278c1.61.681,7.827,12.555,9.581,16.479a.31.31,0,0,0,.591-.158c-.488-3.892-1.579-6.762-3.415-11.214-.334-.811-2.349-4.724.193-5.89,1.875-.86,3.565,2.463,4.187,3.719C67.876,59.2,70.332,65.942,71.729,70.191Z"/><path d="M54.08,31.32a8.009,8.009,0,0,1-2.2,3.95c-.78.8-3.53,3.83-5.93,3.17a3.137,3.137,0,0,1-2.33-2.17,2.316,2.316,0,0,1-.02-.87c.435-.169,2.792-1.045,5.822-4.572a10.688,10.688,0,0,0,2.125-3.25,4.9,4.9,0,0,0,.293-1.828,5.79,5.79,0,0,1,2.33,4.09A5.646,5.646,0,0,1,54.08,31.32Z"/><path d="M64.41,22.82a4.618,4.618,0,0,0-2.27,1.87,30.182,30.182,0,0,1-5.823,5.415,1.759,1.759,0,0,0-.756,1.391c-.064,1.627-1.492,4.059-2.711,5.294a12.091,12.091,0,0,1-3,2.37,6.827,6.827,0,0,1-3.1.79,4.91,4.91,0,0,1-1.22-.14,4.518,4.518,0,0,1-3.46-3.32,4.192,4.192,0,0,1-.09-.7,2,2,0,0,1-.34.02,3.591,3.591,0,0,1-2.2-.72,4.3,4.3,0,0,1-1.53-4.99A40.919,40.919,0,0,1,42.1,24.692a1.445,1.445,0,0,1,.572,1.878c-.67.92-1.87,2.23-2.71,3.24a2.766,2.766,0,0,0-.18,3.48,2.6,2.6,0,0,0,2.41.88,5.278,5.278,0,0,0,2.55-1.14,27.466,27.466,0,0,0,4.593-5.072A8.334,8.334,0,0,0,50.62,24.34a4.268,4.268,0,0,0-2.2-3.9,4.688,4.688,0,0,0-3.091-.535.292.292,0,0,1-.3-.439C48.662,13.293,52.779,2.148,46.98,2.4,45.32,2.47,44,7,41.97,10.44c-3.71,6.31-4.42,7.58-9.24,12.38a4.444,4.444,0,0,1-2.41,1.3,5.035,5.035,0,0,1-4.44-1.6c-1.06-1.2-1.48-2.84-2.35-4.19-1.62-2.52-6.39-4.27-8.14-3.58-4.9,1.93-.53,5.28,1.21,7.93a52.935,52.935,0,0,1,5.03,9.46c2.55,6.4,2.94,11.95-.61,18.17C18.67,54.42,8.68,72.72,2.97,82.42a6.011,6.011,0,0,0-.83,3.04v36.181a3.309,3.309,0,0,0,3.3,3.3H8.36a3.013,3.013,0,0,0,2.9-2.24c6.15-23.03,17.48-52.97,25.38-65.63,1.68-2.7,5.5-7.56,8.04-9.32A66.356,66.356,0,0,0,57.56,36.5c2.77-3.08,6.07-5.44,8.95-10.68A2.1,2.1,0,0,0,64.41,22.82Z"/></svg>