<svg id="Solid" xmlns="http://www.w3.org/2000/svg" viewBox="0 0 128 128"><title>hand, selfie, take, photo, picture, party</title><path d="M34.8,3.453,33.215,6.358a6.561,6.561,0,0,1-2.61,2.61L27.7,10.557a.848.848,0,0,0,0,1.488l2.906,1.589a6.561,6.561,0,0,1,2.61,2.61L34.8,19.149a.848.848,0,0,0,1.488,0l1.589-2.905a6.555,6.555,0,0,1,2.61-2.61L43.4,12.045a.848.848,0,0,0,0-1.488L40.491,8.968a6.555,6.555,0,0,1-2.61-2.61l-1.589-2.9A.848.848,0,0,0,34.8,3.453Z"/><path d="M97.36,31.06C95,33.63,84.71,37.14,85.22,60.51c.2,9.38-.18,52.07.65,62.13a3.077,3.077,0,0,1-3.07,3.32H62.76a3.075,3.075,0,0,1-3.08-3.05c-.02-5.3-.15-22.06-.52-25.45C58.03,87.21,47.47,81.97,42.33,77.83c-2.9-2.34-6.19-6.24-4.45-9.18,2.066-3.485-1.257-5.6-.485-8.7a.644.644,0,0,1,1.1-.273A21.266,21.266,0,0,0,41.78,62.59l.1.08a1.52,1.52,0,0,0,.9.3,1.5,1.5,0,0,0,.91-2.7l-.11-.07a17.683,17.683,0,0,1-3.78-3.68l.01-.01a7.392,7.392,0,0,1-.693-7.591.652.652,0,0,1,1.021-.237c2.359,2.05,4.179,3.743,5.392,5.038a1.5,1.5,0,0,0,2.242-.067A1.549,1.549,0,0,0,47.66,51.6c-1.424-1.505-3.709-3.57-6.48-5.947-4.79-4.11-10.29-8.4-12.33-9.92-2.44-1.82-13.98-5.69-12.02-10.06,2.42-5.42,14.97,1.82,18.08,4.37,1.43,1.17,16.43,11.39,18.19,12.5a31.032,31.032,0,0,0,9.72,4.27,22.838,22.838,0,0,0,4.66.53c9.26,0,9.62-8,16.8-16.65a37.886,37.886,0,0,1,3.18-3.39c2.8-2.65,5.73-3.4,7.94-2.96A4.038,4.038,0,0,1,97.36,31.06Z"/><path d="M78.26,12.28H51.64a6.026,6.026,0,0,0-6.02,6.02V33.99c3.45,2.35,7.02,4.71,9.09,6.02a28.436,28.436,0,0,0,8.71,3.86,20.165,20.165,0,0,0,4.06.47c4.4,0,5.83-2.1,8.9-7.3a52.242,52.242,0,0,1,7.9-10.83V18.3A6.02,6.02,0,0,0,78.26,12.28ZM53.1,22.516a2.549,2.549,0,1,1,2.549-2.549A2.549,2.549,0,0,1,53.1,22.516Z"/></svg>