<svg id="Solid" xmlns="http://www.w3.org/2000/svg" viewBox="0 0 128 128"><title>high, drunk, drugs, addict, weed, happy, people</title><path d="M77.944,113.163a11.09,11.09,0,0,1-1.224-.289,1.464,1.464,0,0,1-.357.57c-3.53,3.394-9.781,4.3-12.919,4.3s-9.388-.905-12.919-4.3a1.45,1.45,0,0,1-.356-.57,11.107,11.107,0,0,1-1.225.289c-4.02.71-13.05,2.63-17.4,10.88a1.013,1.013,0,0,0,.89,1.48h62.02a1.013,1.013,0,0,0,.89-1.48C90.994,115.793,81.964,113.873,77.944,113.163Z"/><path d="M124.875,2.5a.965.965,0,0,0-.735-.33h-1.21c-9.37,9.38-11.74,16.56-13.64,22.34-1.15,3.48-2.06,6.24-4.27,8.58-2.97,3.16-4.16,6.54-5.2,9.52-.96,2.74-1.79,5.11-3.78,7.13-3.96,4.03-8.06,8.2-11.17,16.62a84.688,84.688,0,0,0-4.31,17.96c-.07.48-.44,3.34-.65,4.33-1.276,6.071-5.1,12.8-15.219,15.463H62.2C52.1,101.456,48.276,94.751,46.98,88.65c-.22-1.02-.58-3.85-.65-4.33a84.881,84.881,0,0,0-4.31-17.97c-3.12-8.41-7.21-12.58-11.17-16.61-1.99-2.02-2.82-4.39-3.78-7.13-1.05-2.98-2.23-6.36-5.2-9.52-2.21-2.34-3.12-5.1-4.27-8.58C15.7,18.73,13.33,11.55,3.96,2.17H2.74a1.007,1.007,0,0,0-.723.318.97.97,0,0,0-.277.682V27.642a2.023,2.023,0,0,0,.778,1.58c12.689,10,6.941,14.6,13.922,28.568,3.88,7.75,10.57,5.07,14.41,18.17a22.977,22.977,0,0,0,8.912,12.164,6.349,6.349,0,0,0,.2,3.675,6.687,6.687,0,0,0,6.763,4.585A22.183,22.183,0,0,0,57.9,105.849c-.154.361-.31.719-.487,1.054a12.243,12.243,0,0,1-4.432,4.708c2.932,2.463,8.063,3.132,10.462,3.132s7.531-.669,10.463-3.132a12.253,12.253,0,0,1-4.433-4.708c-.177-.335-.333-.694-.486-1.055a22.236,22.236,0,0,0,11.181-9.464A6.687,6.687,0,0,0,86.923,91.8a6.362,6.362,0,0,0,.2-3.674A23.037,23.037,0,0,0,96.04,75.96c3.83-13.1,10.53-10.42,14.4-18.17,6.991-13.972,1.234-18.571,13.922-28.568a2.023,2.023,0,0,0,.778-1.58V3.17A1.254,1.254,0,0,0,124.875,2.5Z"/><path d="M73.132,75.923c1.86-.3,2.809-2.254,3.229-3.729,1.554-5.455,4.389-10.969,6.083-16.381.714-2.281,1.519-13.722,6.491-20.679,6.565-9.187,5.926-22.179,10.3-31.561a.993.993,0,0,0-.909-1.4H76.287a1,1,0,0,0-.994,1.184c.967,4.57-1.293,11.728-.682,24.1.4,8.127-2.924,18.234-3,22.166-.217,11.3-1.539,20.6-1.727,22.614S71.008,76.268,73.132,75.923Z"/><path d="M44.444,55.813c3.609,4.375,4.53,10.926,6.084,16.381.42,1.475,1.368,3.426,3.229,3.729,2.123.345,3.434-1.679,3.247-3.688S55.5,60.918,55.278,49.621c-.076-3.932-3.4-14.039-3-22.166.632-12.8-2.147-16.2.339-23.98a1,1,0,0,0-.948-1.307H26.95a.994.994,0,0,0-.9,1.419c4.51,9.381,5.346,22.364,11.908,31.547C42.925,42.091,39.578,49.913,44.444,55.813Z"/><path d="M60.6,79.538a1.5,1.5,0,0,0,1.5-1.5,1.346,1.346,0,1,1,2.691,0,1.5,1.5,0,0,0,3,0,4.346,4.346,0,1,0-8.691,0A1.5,1.5,0,0,0,60.6,79.538Z"/><path d="M54.333,82.673a3.8,3.8,0,0,0-2.769,1.2,3.734,3.734,0,0,0-.993,2.793c.238,3.413,1.969,11.349,12.873,11.349S76.08,90.082,76.318,86.669a3.733,3.733,0,0,0-.994-2.793,3.8,3.8,0,0,0-2.768-1.2ZM73.325,86.46a12.709,12.709,0,0,1-.277,1.888H53.841a12.579,12.579,0,0,1-.277-1.888.715.715,0,0,1,.194-.538.78.78,0,0,1,.575-.249H72.556a.78.78,0,0,1,.574.249A.717.717,0,0,1,73.325,86.46Z"/></svg>