<svg id="Solid" xmlns="http://www.w3.org/2000/svg" viewBox="0 0 128 128"><title>LSD, drugs, high, addict, party, nightclub, Illegal</title><path d="M121.59,58.07c-5.161,9.432-8.3,19.913-13.267,29a.233.233,0,0,1-.427-.174c.8-3.245,1.523-6.474,2.214-9.594,1.69-7.63,3.29-14.84,5.69-20.24a9.624,9.624,0,0,0,.52-1.54,7.164,7.164,0,0,0,1.39-7.03C112.62,33.43,89.9,9.2,69.97,17.65a13,13,0,0,1-10.27,0C39.77,9.2,17.05,33.42,11.96,48.48a7.745,7.745,0,0,0-.29,1.15.127.127,0,0,1-.01.06,8.53,8.53,0,0,0,.54,5.37c2.33,5.24,4.03,12.33,5.84,19.84,1.188,4.922,2.433,10.124,3.974,15.262a.234.234,0,0,1-.419.2C15.445,80.574,12.2,68.653,6.41,58.07A13.807,13.807,0,0,1,4.8,49.28C8.32,27.45,31.44-11.3,60.83,6.91a6.033,6.033,0,0,0,6.34,0C96.56-11.3,119.68,27.45,123.2,49.28A13.807,13.807,0,0,1,121.59,58.07Z"/><path d="M111.911,54.994C96.693,26.474,77.258,30.882,64,30.882S31.306,26.473,16.088,55a5.525,5.525,0,0,0-.146,4.843C25.808,82.054,22.016,125.881,64,125.881s38.193-43.822,48.057-66.037A5.533,5.533,0,0,0,111.911,54.994ZM80.685,83.328a8.093,8.093,0,0,0-.992,8.817,1.515,1.515,0,0,1-.185,1.662,8.132,8.132,0,0,0-1.631,7.1.793.793,0,0,1-1.128.9,8.138,8.138,0,0,0-7.292.021,1.517,1.517,0,0,1-1.662-.187,8.09,8.09,0,0,0-8.818-.983,1.514,1.514,0,0,1-1.654-.179,8.729,8.729,0,0,0-7.507-1.648.793.793,0,0,1-.9-1.124,8.731,8.731,0,0,0,.053-7.685,1.516,1.516,0,0,1,.192-1.653,8.089,8.089,0,0,0,.992-8.817,1.517,1.517,0,0,1,.186-1.662,8.128,8.128,0,0,0,1.63-7.1.794.794,0,0,1,1.129-.9,8.136,8.136,0,0,0,7.291-.021,1.519,1.519,0,0,1,1.663.187,8.09,8.09,0,0,0,8.818.983,1.514,1.514,0,0,1,1.654.179,8.73,8.73,0,0,0,7.506,1.648.793.793,0,0,1,.9,1.124,8.731,8.731,0,0,0-.053,7.685A1.516,1.516,0,0,1,80.685,83.328Z"/><circle cx="60.641" cy="81.802" r="1.699"/><circle cx="70.586" cy="82.916" r="1.699"/><path d="M65.349,89.485a4.18,4.18,0,0,1-.711-.063,2.449,2.449,0,0,1-2.3-2.08,1.2,1.2,0,0,1,1.136-1.253c.578-.028.865.448,1.21.87a.936.936,0,0,0,.968.1c.46-.387.938-.757,1.5-.522a1.2,1.2,0,0,1,.645,1.564A2.522,2.522,0,0,1,65.349,89.485Z"/></svg>