<svg id="Solid" xmlns="http://www.w3.org/2000/svg" viewBox="0 0 128 128"><title>perfume, nightclub, dance, party, smell</title><path d="M106.767,45.183c-6.181-6.345-15.361-10.417-27.4-12.231a12.23,12.23,0,0,0,3.684-9.133C82.979,14.256,73.9,2.779,62.7,2.779h-.119c-5.267.038-10.369,2.556-14.369,7.088a22.212,22.212,0,0,0-5.789,14.247,12.212,12.212,0,0,0,3.807,9.072C34.261,35.177,25.163,39.4,19.089,45.819c-6.776,7.161-9.908,17.137-9.308,29.65.893,18.639,14,30.785,24.835,37.69,1.907,1.216,8.547,5.822,10.271,7.248,3.823,3.163,13.062,4.813,18.4,4.813h.186c5.336-.038,14.763-1.825,18.584-5.081,1.7-1.45,8.274-6.153,10.164-7.4,10.736-7.063,23.663-19.4,24.285-38.049C116.923,62.173,113.646,52.244,106.767,45.183Zm6.74,29.41c-.579,17.367-12.793,28.969-22.936,35.642-2.042,1.344-8.613,6.044-10.461,7.619-3.112,2.653-11.8,4.33-16.66,4.365a1.161,1.161,0,0,1-.164,0c-4.859,0-13.371-1.546-16.487-4.124-1.872-1.549-8.51-6.154-10.57-7.466-10.24-6.526-22.62-17.947-23.452-35.306-.559-11.665,2.3-20.9,8.492-27.442,5.975-6.315,15.256-10.341,27.641-12.059a13.688,13.688,0,0,0,11.817,8.528q.93.045,1.869.045c.815,0,1.633-.026,2.446-.077h0a13.7,13.7,0,0,0,11.7-8.706c12.438,1.532,21.8,5.426,27.872,11.662C110.906,53.729,113.9,62.921,113.507,74.593Z"/><path d="M19.958,78.853C19.62,67.731,25.415,62.77,33.435,64.979a49.968,49.968,0,0,0,37.067-4.1c16.87-9.217,31.975-12.344,34.994,6.286,3.682,22.73-20.3,43.416-42.33,43.057C45.949,109.946,20.471,95.747,19.958,78.853Z"/><ellipse cx="39.059" cy="55.012" rx="5.368" ry="5.428" transform="translate(-0.398 0.285) rotate(-0.416)"/><path d="M12.511,27.8l-1.124,2.056a4.648,4.648,0,0,1-1.848,1.848L7.482,32.83a.6.6,0,0,0,0,1.053l2.057,1.125a4.654,4.654,0,0,1,1.848,1.848l1.124,2.057a.6.6,0,0,0,1.054,0l1.125-2.057a4.645,4.645,0,0,1,1.847-1.848l2.057-1.125a.6.6,0,0,0,0-1.053l-2.057-1.125a4.639,4.639,0,0,1-1.847-1.848L13.565,27.8A.6.6,0,0,0,12.511,27.8Z"/><path d="M23.1,5.285,21.107,8.92a8.217,8.217,0,0,1-3.266,3.266l-3.636,1.989a1.061,1.061,0,0,0,0,1.861l3.636,1.988a8.22,8.22,0,0,1,3.266,3.267L23.1,24.926a1.061,1.061,0,0,0,1.862,0l1.988-3.635a8.22,8.22,0,0,1,3.266-3.267l3.636-1.988a1.061,1.061,0,0,0,0-1.861l-3.636-1.989A8.217,8.217,0,0,1,26.945,8.92L24.957,5.285A1.061,1.061,0,0,0,23.1,5.285Z"/></svg>