<svg id="Solid" xmlns="http://www.w3.org/2000/svg" viewBox="0 0 128 128"><title>speaker, sound, party, nightclub, audio, music, dance</title><circle cx="18.503" cy="102.953" r="3.803"/><path d="M93.5,47.292V46.22a3.043,3.043,0,0,0-3.05-3.05H37.55a3.043,3.043,0,0,0-3.05,3.05v1.072Z"/><path d="M16.609,71.363a1.271,1.271,0,0,1-1.03-.528,1.244,1.244,0,0,1-.173-1.133l2.336-7.074L11.41,59.8a1.263,1.263,0,0,1-.4-2.025L21.054,47.261a1.248,1.248,0,0,1,.91-.392,1.263,1.263,0,0,1,1.162,1.765l-3.4,7.888,6.106,2.162a1.263,1.263,0,0,1,.535,2.015l-8.8,10.223a1.261,1.261,0,0,1-.954.441Z"/><circle cx="47.375" cy="110.953" r="1.857"/><path d="M125.51,82.718V82.17a3.3,3.3,0,0,0-3.476-3.09H93.5V50.292h-59V79.08H6.31c-2.114,0-3.82,1.38-3.82,3.09v.548H34.5v3H2.49V118.59c0,1.71,1.706,3.09,3.82,3.09H34.5v.76a3.051,3.051,0,0,0,3.05,3.06h52.9a3.051,3.051,0,0,0,3.05-3.06v-.76h28.534a3.3,3.3,0,0,0,3.476-3.09V85.718H93.5v-3ZM18.5,112.646a9.693,9.693,0,1,1,9.693-9.693A9.692,9.692,0,0,1,18.5,112.646Zm28.872,4.838a6.531,6.531,0,1,1,6.531-6.531A6.531,6.531,0,0,1,47.375,117.484ZM42.063,79.12A21.938,21.938,0,1,1,64,101.057,21.937,21.937,0,0,1,42.063,79.12Zm38.562,38.364a6.531,6.531,0,1,1,6.531-6.531A6.531,6.531,0,0,1,80.625,117.484ZM109.5,93.261a9.693,9.693,0,1,1-9.693,9.692A9.692,9.692,0,0,1,109.5,93.261Z"/><circle cx="109.505" cy="102.953" r="3.803"/><path d="M64,62.7A16.417,16.417,0,1,0,80.417,79.12,16.417,16.417,0,0,0,64,62.7ZM64,84.87a5.75,5.75,0,1,1,5.75-5.75A5.75,5.75,0,0,1,64,84.87Z"/><path d="M80.625,109.1a1.857,1.857,0,1,0,1.857,1.857A1.857,1.857,0,0,0,80.625,109.1Z"/><path d="M109.773,71.363a1.271,1.271,0,0,1-1.03-.528,1.244,1.244,0,0,1-.173-1.133l2.336-7.074L104.573,59.8a1.263,1.263,0,0,1-.4-2.025l10.042-10.509a1.249,1.249,0,0,1,.91-.392,1.264,1.264,0,0,1,1.163,1.765l-3.4,7.888L119,58.684a1.264,1.264,0,0,1,.534,2.016l-8.8,10.222a1.261,1.261,0,0,1-.954.441Z"/><path d="M63.288,37.138a1.4,1.4,0,0,1-1.127-.577,1.355,1.355,0,0,1-.187-1.235l3.478-10.533L56,20.564a1.376,1.376,0,0,1-.434-2.209L69.986,3.263a1.364,1.364,0,0,1,.991-.429,1.407,1.407,0,0,1,1.161.628,1.368,1.368,0,0,1,.109,1.3L67.176,16.518l9.208,3.26a1.378,1.378,0,0,1,.584,2.2L64.326,36.657A1.37,1.37,0,0,1,63.288,37.138Z"/></svg>