<svg xmlns="http://www.w3.org/2000/svg" viewBox="0 0 84.44 8.9"><defs><style>.cls-1{fill:#fff;stroke:#000;stroke-miterlimit:10;stroke-width:0.25px;}</style></defs><g id="Capa_2" data-name="Capa 2"><g id="Capa_1-2" data-name="Capa 1"><path class="cls-1" d="M5.23,1.92H3.64v6.6H1.72V1.92H.12V.12H5.23Z"/><path class="cls-1" d="M11.71.12v8.4H9.79V5.22H7.88v3.3H6V.12H7.88v3.3H9.79V.12Z"/><path d="M18.31.12V6.85L15.8,8.52H12.56V.12h1.92v6.6h1l1-.65V.12Z"/><path d="M24.91.12v8.4H23V4.57L21.08,2.81V8.52H19.16V.12h1.92L23,2V.12Z"/><path d="M31.51,5.65l-3,2.87H25.76V.12h5.75ZM29.59,1.92H27.68V6.61l1.91-1.76Z"/><path d="M38.11,5.49h-3.8l1.34,1.23h2.46v1.8H34.88L32.36,6.13v-6h5.75ZM36.19,1.92H34.28V3.69h1.91Z"/><path d="M44.71,4l-1.38.69,1.38.7V8.52H42.79V6.21l-1.08-.63h-.83V8.52H39V.12h5.75ZM42.79,1.92H40.88V3.78h.83l1.08-.57Z"/><path class="cls-1" d="M47.48,6.72h1.91V3.45h1.92V8.52H45.56V3l3-2.87h2.76v1.8h-1.8l-2,1.87Z"/><path class="cls-1" d="M57.91,4l-1.38.69,1.38.7V8.52H56V6.21l-1.08-.63h-.83V8.52H52.16V.12h5.75ZM56,1.92H54.08V3.78h.83L56,3.21Z"/><path class="cls-1" d="M64.51,7.21,61.63,8.76,58.76,7.21V.14h.79v0h5Zm-1.92-.93V1.92H60.67V6.28l1,.51Z"/><path class="cls-1" d="M71.11.12V6.85L68.59,8.52H65.36V.12h1.91v6.6h1l1-.65V.12Z"/><path class="cls-1" d="M77.71.12v8.4H75.79V4.57L73.87,2.81V8.52H72V.12h1.91L75.79,2V.12Z"/><path class="cls-1" d="M84.31,5.65l-3,2.87H78.56V.12h5.75ZM82.39,1.92H80.47V6.61l1.92-1.76Z"/></g></g></svg>